PathFileType	4	(X/Y/Z)	D:\TRACE\spotREDO_2-26-24\spot_justBody_Motion_1_1-v60.trc
DataRate	CameraRate	NumFrames	NumMarkers	Units	OrigDataRate	OrigDataStartFrame	OrigNumFrames
100.00	100.00	      21	9	mm	100.00	6126	      7000
Frame#	Time	front left toe			Front right toe			aft left toe			aft right toe			Arm			FL body			FR body			AL Body			AR Body			
		X1	Y1	Z1	X2	Y2	Z2	X3	Y3	Z3	X4	Y4	Z4	X5	Y5	Z5	X6	Y6	Z6	X7	Y7	Z7	X8	Y8	Z8	X9	Y9	Z9	

6126	61.250	-368.77405	25.77170	-134.74391	205.73119	15.72653	-180.48660	-308.28595	35.28125	378.43259	223.50801	27.85457	308.42303	-15.62699	798.16595	-354.23532	-93.57752	538.62842	-315.15106	61.78900	544.53131	-330.98657	-13.18415	575.97418	563.60400	133.20714	578.63300	551.52307	
6127	61.260	-369.63379	25.97957	-134.69434	205.20901	15.79361	-180.24474	-308.64642	34.84488	378.46338	222.59550	27.55413	308.50397	-17.00950	798.15509	-353.98840	-94.84851	538.61633	-315.10004	60.77907	544.58972	-331.03363	-17.18657	576.61060	563.20007	131.87791	578.50153	551.77515	
6128	61.270	-370.38077	26.14608	-134.56651	204.53075	15.79707	-179.92558	-309.17651	34.59197	378.72858	221.67587	27.16476	308.53607	-18.26815	798.20844	-354.21262	-95.92844	538.63043	-315.26233	59.37196	544.71222	-330.94342	-18.20407	576.12463	563.22382	130.32639	578.43707	551.77094	
6129	61.280	-371.13873	26.13923	-134.41428	203.74686	16.06387	-180.02406	-310.21786	34.57124	378.90775	221.46158	27.23325	308.63470	-20.06136	798.30554	-354.30130	-97.08498	538.38159	-315.21826	58.17011	544.68604	-330.90076	-19.64095	575.78979	563.19983	128.85257	578.25854	551.67609	
6130	61.290	-371.31024	25.94511	-134.37016	202.97194	16.31153	-180.13188	-310.88272	34.21204	378.91272	220.90201	26.97019	308.58875	-21.39247	798.09564	-354.10870	-98.47337	538.31818	-315.06485	56.86990	544.79291	-331.05740	-20.99560	575.55817	563.24640	127.26525	578.20831	551.47998	
6131	61.300	-372.06918	26.15696	-134.26791	202.54034	16.57139	-179.97256	-311.32523	33.86724	378.89725	220.10689	26.93774	308.78152	-22.97232	798.00916	-354.04288	-99.91327	538.24603	-315.48294	55.87014	544.81104	-330.97775	-22.37180	575.18512	563.26282	125.49232	577.94250	551.48914	
6132	61.310	-373.09482	26.63374	-134.22263	202.56898	17.05568	-179.61078	-311.83063	33.50989	379.05820	219.42513	26.79779	308.84732	-24.60008	798.05023	-354.18155	-100.89327	537.81445	-315.23950	54.07464	544.88531	-331.17804	-23.73255	574.80621	563.11090	124.11408	577.81012	551.63452	
6133	61.320	-373.49216	26.33428	-134.14879	201.35944	16.82998	-179.79234	-312.67813	33.40552	379.16937	218.98376	26.67576	308.95847	-26.37232	798.18573	-354.21567	-102.51705	538.05450	-315.35153	52.85880	545.18677	-331.59845	-25.52675	574.44495	563.06116	122.77156	577.61896	551.61072	
6134	61.330	-374.16855	26.36506	-133.99797	200.73877	17.10460	-179.56221	-313.36356	33.08037	379.30362	218.42609	26.61261	309.11777	-28.52687	798.30609	-354.31143	-104.36383	538.15259	-316.01672	51.25650	545.01971	-331.25415	-26.95951	574.28766	562.97064	120.67830	577.61902	551.42090	
6135	61.340	-375.02246	26.53760	-133.80807	199.95193	17.26277	-179.81664	-313.75125	32.72745	379.52646	217.64716	26.44054	309.16806	-30.09335	798.19794	-354.26846	-105.73330	537.76129	-315.67654	49.73287	545.18463	-331.54810	-28.72292	574.02179	562.78076	119.08662	577.44312	551.15234	
6136	61.350	-375.37091	26.46533	-133.63452	200.06062	17.51104	-179.48894	-314.16592	32.38742	379.59595	217.18292	26.27686	309.13925	-31.88316	798.23907	-354.43451	-107.70280	538.10974	-316.67068	48.16292	545.38263	-331.65894	-30.37416	573.81079	562.58136	117.55805	577.43335	551.21954	
6137	61.360	-375.68668	26.41163	-133.53468	199.00304	17.71104	-179.75482	-314.66965	31.89014	379.72839	216.64737	26.06522	309.18039	-33.83931	798.41980	-354.36288	-108.63500	537.56671	-316.43094	46.58303	545.58337	-331.79977	-31.94459	573.61670	562.44922	115.91860	577.40613	551.20605	
6138	61.370	-376.44916	26.70659	-133.46368	198.41515	18.00176	-179.64668	-315.37970	31.78552	379.89029	216.26743	26.07186	309.30869	-35.58137	798.47235	-354.32794	-110.24918	537.65686	-316.31473	45.13241	545.72656	-331.86917	-33.86127	573.33026	562.31781	113.84459	577.52197	550.88123	
6139	61.380	-376.87863	26.72233	-133.18719	198.05664	18.16600	-179.49890	-316.00235	31.52677	380.01569	215.84961	26.01367	309.33347	-37.83996	798.41217	-354.70767	-112.34258	538.12744	-317.13925	43.66070	545.77277	-332.18103	-35.60158	573.14703	562.19861	112.34090	577.43585	550.54913	
6140	61.390	-377.17566	26.56829	-133.09448	197.85075	18.60369	-178.97000	-316.28516	31.19795	380.01971	215.23337	25.91504	309.50342	-39.31328	798.50348	-354.78018	-113.48594	537.48529	-316.66507	41.90968	546.07281	-332.27878	-37.09534	572.90430	562.06726	110.65105	577.32263	550.40240	
6141	61.400	-377.47348	26.37715	-133.07089	197.24525	18.49962	-179.13184	-316.87228	30.82796	380.01260	214.55656	25.68048	309.40143	-41.49860	798.68634	-354.86090	-114.83085	537.44379	-316.65244	40.37227	546.32758	-332.56732	-38.96109	572.75476	561.98303	108.73312	577.43768	550.34583	
6142	61.410	-377.98120	26.52425	-132.83995	196.77715	18.61329	-179.16956	-317.32773	30.56524	380.08731	214.32648	25.54599	309.34027	-43.27834	798.69434	-354.93866	-116.30055	537.66821	-317.33548	38.96105	546.60040	-332.69577	-40.54197	572.40900	561.65271	107.04285	577.32275	550.13013	
6143	61.420	-378.47528	26.60568	-132.64606	196.38661	18.96706	-179.22763	-317.63528	30.23580	380.30566	214.20459	25.59562	309.49026	-45.35338	798.76941	-355.38382	-118.16048	537.68201	-317.63297	37.16430	546.83643	-332.98639	-42.54981	573.64148	562.29486	105.27602	577.15881	549.76501	
6144	61.430	-378.66199	26.61108	-132.58429	196.16281	19.20143	-179.08571	-317.69318	29.80683	380.61948	213.75381	25.57402	309.68756	-46.83118	798.95520	-355.27435	-119.82481	537.75793	-317.97571	35.76126	546.89154	-333.22876	-44.08942	573.40594	562.18414	103.78373	577.13422	549.74329	
6145	61.440	-378.85416	26.56746	-132.55768	195.87955	19.29582	-178.93700	-318.03757	29.38824	380.74649	213.44795	25.40958	309.78482	-48.85959	799.34393	-355.63074	-121.30236	537.78979	-318.00665	33.85735	546.98224	-333.67767	-45.89041	573.10889	561.82025	101.82299	577.01483	549.46149	
6146	61.450	-379.11627	26.54320	-132.47655	195.62961	19.43970	-178.92961	-318.44266	29.08907	380.91669	213.06563	25.15827	309.72186	-50.40775	799.34528	-355.53894	-123.21889	537.99518	-318.26453	32.18636	547.23334	-333.84628	-47.50423	573.03619	561.59589	100.15290	576.84247	549.06024	
